<svg width="512" height="512" viewBox="0 0 512 512" fill="none" xmlns="http://www.w3.org/2000/svg">
<path d="M158.845 87.0111C168.774 87.09 178.702 88.9834 188.63 92.6914C198.559 96.3995 207.62 102.553 215.815 111.153C224.01 119.673 230.59 131.31 235.554 146.063C240.518 160.816 243 179.317 243 201.565C243 223.103 240.951 242.235 236.854 258.96C232.835 275.607 227.004 289.65 219.361 301.089C211.797 312.529 202.577 321.207 191.703 327.124C180.908 333.041 168.695 336 155.063 336C141.51 336 129.415 333.318 118.777 327.953C108.218 322.509 99.5509 314.975 92.7744 305.35C86.0766 295.646 81.7822 284.403 79.8911 271.623H108.731C111.331 282.747 116.492 291.938 124.214 299.196C132.015 306.375 142.298 309.965 155.063 309.965C173.738 309.965 188.473 301.8 199.268 285.469C210.142 269.137 215.579 246.061 215.579 216.239H213.688C209.275 222.866 204.035 228.586 197.968 233.399C191.9 238.211 185.163 241.919 177.756 244.523C170.35 247.126 162.47 248.428 154.117 248.428C140.249 248.428 127.524 244.996 115.941 238.132C104.436 231.19 95.217 221.683 88.283 209.612C81.4277 197.462 78 183.577 78 167.956C78 153.124 81.3095 139.554 87.9284 127.247C94.6261 114.861 104.003 104.999 116.059 97.6618C128.193 90.3246 142.456 86.7744 158.845 87.0111ZM158.845 113.046C148.917 113.046 139.973 115.531 132.015 120.502C124.135 125.393 117.871 132.02 113.222 140.383C108.652 148.667 106.367 157.858 106.367 167.956C106.367 178.055 108.573 187.246 112.986 195.53C117.477 203.735 123.584 210.283 131.306 215.174C139.107 219.987 147.971 222.393 157.9 222.393C165.385 222.393 172.359 220.933 178.82 218.014C185.282 215.016 190.915 210.953 195.722 205.825C200.607 200.618 204.429 194.741 207.187 188.192C209.945 181.565 211.324 174.662 211.324 167.483C211.324 158.016 209.039 149.14 204.468 140.856C199.977 132.572 193.752 125.866 185.794 120.738C177.914 115.61 168.931 113.046 158.845 113.046Z" fill="black"/>
<path d="M251.665 335.995C241.676 335.837 231.688 333.944 221.699 330.314C211.711 326.685 202.594 320.571 194.35 311.971C186.105 303.293 179.486 291.577 174.491 276.823C169.497 261.991 167 243.371 167 220.965C167 199.505 169.021 180.491 173.064 163.923C177.107 147.276 182.974 133.272 190.663 121.911C198.353 110.471 207.628 101.793 218.489 95.8758C229.428 89.9586 241.755 87 255.47 87C269.105 87 281.234 89.7219 291.857 95.1657C302.559 100.531 311.279 108.026 318.017 117.651C324.755 127.276 329.116 138.361 331.097 150.906H302.083C299.388 140.018 294.156 130.984 286.387 123.805C278.618 116.625 268.312 113.036 255.47 113.036C236.603 113.036 221.739 121.201 210.878 137.533C200.097 153.864 194.667 176.783 194.587 206.29H196.49C200.929 199.584 206.201 193.864 212.305 189.131C218.489 184.318 225.306 180.61 232.758 178.006C240.21 175.403 248.097 174.101 256.421 174.101C270.373 174.101 283.137 177.572 294.711 184.515C306.285 191.379 315.56 200.886 322.536 213.036C329.512 225.107 333 238.953 333 254.575C333 269.565 329.631 283.293 322.893 295.758C316.154 308.145 306.681 318.007 294.473 325.344C282.344 332.602 268.074 336.153 251.665 335.995ZM251.665 309.959C261.653 309.959 270.611 307.474 278.539 302.504C286.545 297.533 292.848 290.867 297.446 282.504C302.123 274.141 304.461 264.831 304.461 254.575C304.461 244.555 302.202 235.442 297.683 227.237C293.244 218.953 287.1 212.365 279.252 207.474C271.483 202.582 262.605 200.136 252.616 200.136C245.085 200.136 238.069 201.636 231.569 204.634C225.068 207.553 219.361 211.576 214.446 216.705C209.61 221.833 205.805 227.711 203.03 234.338C200.255 240.886 198.868 247.79 198.868 255.048C198.868 264.673 201.128 273.667 205.646 282.03C210.244 290.393 216.507 297.139 224.434 302.267C232.441 307.395 241.518 309.959 251.665 309.959Z" fill="#CCCCCC" fill-opacity="0.71"/>
<path d="M350.5 331C332.619 331 317.388 326.148 304.808 316.443C292.228 306.66 282.615 292.498 275.969 273.957C269.323 255.337 266 232.852 266 206.5C266 180.306 269.323 157.939 275.969 139.398C282.694 120.778 292.347 106.577 304.927 96.7932C317.586 86.9311 332.777 82 350.5 82C368.223 82 383.374 86.9311 395.954 96.7932C408.614 106.577 418.266 120.778 424.912 139.398C431.637 157.939 435 180.306 435 206.5C435 232.852 431.677 255.337 425.031 273.957C418.385 292.498 408.772 306.66 396.192 316.443C383.612 326.148 368.381 331 350.5 331ZM350.5 304.964C368.223 304.964 381.99 296.443 391.801 279.401C401.611 262.359 406.517 238.059 406.517 206.5C406.517 185.513 404.262 167.643 399.752 152.889C395.321 138.135 388.913 126.893 380.526 119.161C372.218 111.429 362.21 107.563 350.5 107.563C332.935 107.563 319.208 116.202 309.318 133.481C299.428 150.68 294.483 175.02 294.483 206.5C294.483 227.487 296.699 245.317 301.129 259.992C305.56 274.667 311.929 285.831 320.237 293.484C328.623 301.137 338.711 304.964 350.5 304.964Z" fill="black"/>
<path d="M191.182 430.455C184.636 430.455 179 428.909 174.273 425.818C169.545 422.727 165.909 418.47 163.364 413.045C160.818 407.621 159.545 401.424 159.545 394.455C159.545 387.364 160.849 381.106 163.455 375.682C166.091 370.227 169.758 365.97 174.455 362.909C179.182 359.818 184.697 358.273 191 358.273C195.909 358.273 200.333 359.182 204.273 361C208.212 362.818 211.439 365.364 213.955 368.636C216.47 371.909 218.03 375.727 218.636 380.091H207.909C207.091 376.909 205.273 374.091 202.455 371.636C199.667 369.151 195.909 367.909 191.182 367.909C187 367.909 183.333 369 180.182 371.182C177.061 373.333 174.621 376.379 172.864 380.318C171.136 384.227 170.273 388.818 170.273 394.091C170.273 399.485 171.121 404.182 172.818 408.182C174.545 412.182 176.97 415.288 180.091 417.5C183.242 419.712 186.939 420.818 191.182 420.818C193.97 420.818 196.5 420.333 198.773 419.364C201.045 418.394 202.97 417 204.545 415.182C206.121 413.364 207.242 411.182 207.909 408.636H218.636C218.03 412.758 216.53 416.47 214.136 419.773C211.773 423.045 208.636 425.651 204.727 427.591C200.849 429.5 196.333 430.455 191.182 430.455Z" fill="black"/>
<path d="M283.773 374.818L274.136 377.545C273.53 375.939 272.636 374.379 271.455 372.864C270.303 371.318 268.727 370.045 266.727 369.045C264.727 368.045 262.167 367.545 259.045 367.545C254.773 367.545 251.212 368.53 248.364 370.5C245.545 372.439 244.136 374.909 244.136 377.909C244.136 380.576 245.106 382.682 247.045 384.227C248.985 385.773 252.015 387.061 256.136 388.091L266.5 390.636C272.742 392.151 277.394 394.47 280.455 397.591C283.515 400.682 285.045 404.667 285.045 409.545C285.045 413.545 283.894 417.121 281.591 420.273C279.318 423.424 276.136 425.909 272.045 427.727C267.955 429.545 263.197 430.455 257.773 430.455C250.652 430.455 244.758 428.909 240.091 425.818C235.424 422.727 232.47 418.212 231.227 412.273L241.409 409.727C242.379 413.485 244.212 416.303 246.909 418.182C249.636 420.061 253.197 421 257.591 421C262.591 421 266.561 419.939 269.5 417.818C272.47 415.667 273.955 413.091 273.955 410.091C273.955 407.667 273.106 405.636 271.409 404C269.712 402.333 267.106 401.091 263.591 400.273L251.955 397.545C245.561 396.03 240.864 393.682 237.864 390.5C234.894 387.288 233.409 383.273 233.409 378.455C233.409 374.515 234.515 371.03 236.727 368C238.97 364.97 242.015 362.591 245.864 360.864C249.742 359.136 254.136 358.273 259.045 358.273C265.955 358.273 271.379 359.788 275.318 362.818C279.288 365.848 282.106 369.848 283.773 374.818Z" fill="black"/>
<path d="M350.648 374.818L341.011 377.545C340.405 375.939 339.511 374.379 338.33 372.864C337.178 371.318 335.602 370.045 333.602 369.045C331.602 368.045 329.042 367.545 325.92 367.545C321.648 367.545 318.087 368.53 315.239 370.5C312.42 372.439 311.011 374.909 311.011 377.909C311.011 380.576 311.981 382.682 313.92 384.227C315.86 385.773 318.89 387.061 323.011 388.091L333.375 390.636C339.617 392.151 344.269 394.47 347.33 397.591C350.39 400.682 351.92 404.667 351.92 409.545C351.92 413.545 350.769 417.121 348.466 420.273C346.193 423.424 343.011 425.909 338.92 427.727C334.83 429.545 330.072 430.455 324.648 430.455C317.527 430.455 311.633 428.909 306.966 425.818C302.299 422.727 299.345 418.212 298.102 412.273L308.284 409.727C309.254 413.485 311.087 416.303 313.784 418.182C316.511 420.061 320.072 421 324.466 421C329.466 421 333.436 419.939 336.375 417.818C339.345 415.667 340.83 413.091 340.83 410.091C340.83 407.667 339.981 405.636 338.284 404C336.587 402.333 333.981 401.091 330.466 400.273L318.83 397.545C312.436 396.03 307.739 393.682 304.739 390.5C301.769 387.288 300.284 383.273 300.284 378.455C300.284 374.515 301.39 371.03 303.602 368C305.845 364.97 308.89 362.591 312.739 360.864C316.617 359.136 321.011 358.273 325.92 358.273C332.83 358.273 338.254 359.788 342.193 362.818C346.163 365.848 348.981 369.848 350.648 374.818Z" fill="black"/>
</svg>
